<svg width="200" height="22" viewBox="0 0 200 22" fill="none" xmlns="http://www.w3.org/2000/svg">
<path fill-rule="evenodd" clip-rule="evenodd" d="M7.37747 16.3947C7.95827 16.3947 8.38471 16.3131 8.65694 16.1498C8.92918 15.9684 9.10165 15.6782 9.1742 15.2791L9.22863 14.8439C9.24682 14.7168 9.25584 14.5717 9.25584 14.4084C9.25584 13.9005 8.82933 13.6466 7.97639 13.6466H6.07077C4.40107 13.6466 3.19417 13.2203 2.45009 12.3677C1.74229 11.5333 1.343 10.6899 1.25227 9.83731C1.21596 9.34758 1.19782 8.94844 1.19782 8.64009C1.19782 8.33174 1.21596 8.03244 1.25227 7.7422L1.55171 5.45665C1.86024 3.31619 2.83122 1.95574 4.46459 1.37529C5.49908 0.994359 7.02358 0.803894 9.03812 0.803894C12.0145 0.803894 14.2922 1.11227 15.8711 1.72901L15.2177 5.83756C13.5842 5.65617 11.5064 5.56547 8.98361 5.56547C8.1851 5.56547 7.64064 5.62898 7.35025 5.75594C7.05986 5.88292 6.8693 6.21849 6.77856 6.76268L6.72412 7.06198C6.70598 7.20709 6.6969 7.37941 6.6969 7.57895C6.6969 7.76034 6.76949 7.94174 6.91467 8.12313C7.05986 8.28638 7.47729 8.36802 8.16698 8.36802H10.1815C11.1615 8.36802 11.9782 8.56754 12.6315 8.96664C13.3031 9.3657 13.7568 9.85542 13.9927 10.4359C14.4283 11.4335 14.646 12.3677 14.646 13.2384C14.646 13.5468 14.6097 13.8461 14.5372 14.1363L14.4827 15.8504C14.4464 16.83 14.265 17.6644 13.9383 18.3538C13.6115 19.043 13.2395 19.569 12.8221 19.9319C12.4047 20.2764 11.8602 20.5486 11.1887 20.7481C10.5172 20.9295 9.94549 21.0384 9.47365 21.0747C9.01992 21.111 8.06714 21.1291 6.61522 21.1291C5.18147 21.1291 4.01995 21.0838 3.13065 20.9931C2.25953 20.9023 1.21596 20.6393 0 20.2041L0.653349 16.0953C2.59527 16.295 4.83664 16.3947 7.37747 16.3947ZM16.6169 5.72899L17.3791 0.994611H32.8417L32.0795 5.72899H26.9072L24.5115 20.9117H19.2303L21.6258 5.72899H16.6169ZM36.325 0.994611L26.9332 20.9117H32.7861L34.3378 17.4289H39.4557L40.0275 20.9117H45.4449L42.5591 0.994611H36.325ZM39.1019 12.9394H36.2434L38.4758 7.60641L39.1019 12.9394ZM58.3191 0.994611C60.1885 0.994611 61.5951 1.57506 62.5387 2.736C63.2284 3.58854 63.5733 4.7404 63.5733 6.19155C63.5733 7.69711 63.3191 9.10287 62.8109 10.4089C62.5569 11.0801 62.3029 11.588 62.0487 11.9327C61.7947 12.2773 61.4861 12.5675 61.1232 12.8033C60.6332 13.1117 60.0977 13.3022 59.5169 13.3747L62.2939 20.9117H56.2774L54.2358 13.5924L53.2556 13.4836L52.0852 20.9117H46.8038L49.9616 0.994611H58.3191ZM56.2774 9.51103C56.9307 9.51103 57.3664 9.35684 57.5842 9.04852C57.802 8.74013 57.9472 8.32291 58.0198 7.79687C58.1105 7.27084 58.1558 6.87177 58.1558 6.59967C58.1558 5.85596 57.7475 5.4841 56.9307 5.4841H54.5624L53.9089 9.51103H56.2774ZM72.3021 16.1498C72.0297 16.3131 71.6034 16.3947 71.0226 16.3947C68.4818 16.3947 66.2403 16.295 64.2984 16.0953L63.6451 20.2041C64.861 20.6393 65.9047 20.9023 66.7758 20.9931C67.6649 21.0838 68.8265 21.1291 70.2602 21.1291C71.7122 21.1291 72.6649 21.111 73.1187 21.0747C73.5907 21.0384 74.1624 20.9295 74.8339 20.7481C75.5053 20.5486 76.0498 20.2764 76.4671 19.9319C76.8846 19.569 77.2566 19.043 77.5833 18.3538C77.9101 17.6644 78.0915 16.83 78.1278 15.8504L78.1823 14.1363C78.2548 13.8461 78.2911 13.5468 78.2911 13.2384C78.2911 12.3677 78.0734 11.4335 77.6377 10.4359C77.4019 9.85542 76.9481 9.3657 76.2766 8.96664C75.6233 8.56754 74.8067 8.36802 73.8265 8.36802H71.812C71.1224 8.36802 70.7049 8.28638 70.5598 8.12313C70.4146 7.94174 70.342 7.76034 70.342 7.57895C70.342 7.37941 70.3511 7.20709 70.3693 7.06198L70.4237 6.76268C70.5144 6.21849 70.7049 5.88292 70.9954 5.75594C71.2857 5.62898 71.8302 5.56547 72.6287 5.56547C75.1514 5.56547 77.2293 5.65617 78.8627 5.83756L79.5161 1.72901C77.9373 1.11227 75.6595 0.803894 72.6831 0.803894C70.6686 0.803894 69.1442 0.994359 68.1096 1.37529C66.4762 1.95574 65.5053 3.31619 65.1967 5.45665L64.8973 7.7422C64.861 8.03244 64.8429 8.33174 64.8429 8.64009C64.8429 8.94844 64.861 9.34758 64.8973 9.83731C64.9881 10.6899 65.3874 11.5333 66.0951 12.3677C66.8392 13.2203 68.0462 13.6466 69.7159 13.6466H71.6216C72.4744 13.6466 72.901 13.9005 72.901 14.4084C72.901 14.5717 72.8919 14.7168 72.8738 14.8439L72.8194 15.2791C72.7466 15.6782 72.5743 15.9684 72.3021 16.1498ZM79.0784 20.9117L82.2369 0.994611H87.5176L86.2651 8.91244H90.8933L92.1459 0.994611H97.4267L94.269 20.9117H88.9875L90.131 13.6468H85.5035L84.36 20.9117H79.0784ZM99.5435 0.994611L96.3859 20.9117H101.667L104.825 0.994611H99.5435ZM115.529 0.994611C117.071 0.994611 118.379 1.48436 119.449 2.4639C120.357 3.26204 120.81 4.54993 120.81 6.32759C120.81 7.85129 120.556 9.28429 120.048 10.6266C119.776 11.2978 119.495 11.851 119.204 12.2864C118.932 12.7036 118.578 13.0573 118.143 13.3475C117.707 13.6197 117.326 13.8191 116.999 13.946C116.527 14.1456 115.784 14.2454 114.767 14.2454C113.824 14.2454 112.889 14.1546 111.963 13.9732C111.056 13.792 110.556 13.674 110.466 13.6197L109.322 20.9117H104.041L107.199 0.994611H115.529ZM113.596 9.70154C114.522 9.70154 115.103 8.97597 115.339 7.52479C115.375 7.27084 115.393 7.03502 115.393 6.81735C115.393 5.92851 115.021 5.4841 114.277 5.4841H111.773L111.092 9.70154H113.596ZM132.157 1.29367C131.249 1.62017 130.478 2.17342 129.843 2.95341C129.226 3.71527 128.726 4.62224 128.345 5.67431C127.983 6.7264 127.628 8.09592 127.284 9.78287C126.957 11.4517 126.794 12.9663 126.794 14.3268C126.794 17.2836 127.465 19.2517 128.809 20.2313C129.589 20.8117 130.551 21.1019 131.694 21.1019C132.856 21.1019 133.754 20.9568 134.389 20.6665C134.825 20.4851 135.287 20.1315 135.777 19.6053L137.057 20.9386H140.787L142.692 9.07542C142.038 9.02099 141.422 8.99385 140.841 8.99385C138.518 8.99385 136.893 9.2206 135.968 9.67401L135.451 12.9391H136.785L136.458 14.9797L136.295 15.2791C136.186 15.4968 135.95 15.7146 135.587 15.9321C135.242 16.1317 134.816 16.2314 134.307 16.2314C133.799 16.2314 133.409 16.1861 133.136 16.0953C132.864 15.9865 132.638 15.8414 132.456 15.6601C132.293 15.4787 132.202 15.261 132.184 15.007V13.973C132.184 13.5559 132.32 12.5401 132.592 10.9257C132.955 8.65825 133.382 7.15268 133.872 6.40896C134.362 5.64709 135.197 5.26618 136.376 5.26618C137.574 5.26618 138.853 5.33874 140.215 5.48385C140.723 5.53828 141.186 5.59269 141.603 5.64709C142.02 5.70153 142.347 5.75593 142.584 5.81036C142.838 5.84663 142.973 5.86478 142.991 5.86478L143.645 1.86504C141.867 1.35715 140.605 1.05784 139.861 0.967144C139.117 0.858304 137.874 0.803894 136.132 0.803894C134.389 0.803894 133.064 0.967144 132.157 1.29367ZM153.014 21.0753H152.17H151.326H150.346C150.002 21.0753 149.629 21.0571 149.23 21.0209C148.831 21.0027 148.377 20.9484 147.869 20.8576C147.379 20.7488 146.952 20.5946 146.589 20.395C146.245 20.1956 145.891 19.9415 145.528 19.6331C144.875 19.1253 144.402 18.1639 144.112 16.7489C143.985 16.1867 143.922 15.688 143.922 15.2525V13.8376C143.94 13.3298 144.039 12.5226 144.221 11.4161L145.909 1.02218H151.191L149.42 12.2323C149.257 13.3569 149.176 14.1459 149.176 14.5996C149.176 15.7603 149.92 16.3409 151.408 16.3409C151.989 16.3409 152.47 16.2593 152.851 16.096C153.232 15.9146 153.531 15.6063 153.749 15.1709C154.094 14.4997 154.357 13.5202 154.539 12.2323L156.308 1.02218H161.616L159.984 13.0486C159.493 16.1323 158.522 18.3363 157.071 19.6604C156.635 20.0595 156.181 20.3405 155.709 20.5038C154.693 20.8848 153.795 21.0753 153.014 21.0753ZM163.751 1.02218L160.593 20.9393H165.874L169.032 1.02218H163.751ZM175.979 16.2048H181.587L180.825 20.9393H172.766C171.424 20.9393 170.389 20.5946 169.664 19.9053C169.118 19.3791 168.846 18.6445 168.846 17.7012C168.846 17.393 168.874 17.0574 168.928 16.6945L171.405 1.02218H176.687L174.509 14.79C174.4 15.4975 174.527 15.9146 174.89 16.0415C175.162 16.1504 175.525 16.2048 175.979 16.2048ZM200 8.20536C200 3.41657 198.112 1.02218 194.339 1.02218H185.735L182.577 20.9393H191.642C192.858 20.9393 193.866 20.8213 194.665 20.5855C195.482 20.3496 196.234 19.9143 196.923 19.2795C197.631 18.6264 198.203 17.7012 198.639 16.5042C199.075 15.307 199.411 13.9011 199.646 12.2867C199.882 10.6542 200 9.2937 200 8.20536ZM193.331 15.2525C192.895 16.0688 192.25 16.477 191.397 16.477H188.565L190.308 5.48446H192.868C193.449 5.48446 193.875 5.5933 194.147 5.81098C194.565 6.17376 194.773 7.08073 194.773 8.53189C194.773 9.03982 194.665 9.87417 194.447 11.0351C194.138 13.0123 193.765 14.4181 193.331 15.2525Z" fill="white"/>
</svg>
