<?xml version="1.0" standalone="no"?>
<!DOCTYPE svg PUBLIC "-//W3C//DTD SVG 20010904//EN"
 "http://www.w3.org/TR/2001/REC-SVG-20010904/DTD/svg10.dtd">
<svg version="1.0" xmlns="http://www.w3.org/2000/svg"
 width="700.000000pt" height="700.000000pt" viewBox="0 0 700.000000 700.000000"
 preserveAspectRatio="xMidYMid meet">
<metadata>
Created by potrace 1.14, written by Peter Selinger 2001-2017
</metadata>
<g transform="translate(0.000000,700.000000) scale(0.100000,-0.100000)"
fill="#000000" stroke="none">
<path d="M5595 6298 c-1012 -507 -1176 -586 -1215 -587 -41 -1 -165 59 -1215
584 -644 322 -1174 584 -1180 584 -5 -1 -34 -27 -63 -59 l-52 -57 445 -893
446 -892 -17 -52 c-9 -28 -21 -56 -28 -62 -6 -7 -543 -278 -1193 -604 -650
-325 -1183 -596 -1185 -602 -2 -6 5 -44 16 -85 l19 -73 1522 0 1521 0 42 -44
42 -44 0 -1520 0 -1519 47 -12 c27 -7 62 -16 80 -21 22 -5 35 -4 41 4 5 6 274
540 597 1186 323 646 592 1180 599 1186 6 7 34 19 62 28 l52 17 893 -446 893
-446 58 59 59 58 -429 859 c-787 1578 -742 1485 -742 1531 0 31 15 72 59 160
33 66 296 593 586 1173 l526 1054 -25 26 c-13 14 -39 42 -58 61 l-33 35 -1170
-587z"/>
<path d="M1835 2712 c-28 -3 -59 -47 -397 -555 -649 -974 -687 -1032 -695
-1042 -9 -11 -281 -419 -298 -447 -5 -9 -41 -63 -80 -120 -38 -56 -72 -107
-74 -113 -2 -5 -15 -23 -28 -39 l-24 -29 62 -63 62 -62 41 26 c23 15 307 204
632 421 324 217 831 555 1126 752 295 197 539 363 543 369 3 6 7 210 8 455 2
389 0 445 -13 446 -53 2 -841 3 -865 1z"/>
</g>
</svg>
