<?xml version="1.0" standalone="no"?>
<!DOCTYPE svg PUBLIC "-//W3C//DTD SVG 20010904//EN"
 "http://www.w3.org/TR/2001/REC-SVG-20010904/DTD/svg10.dtd">
<svg version="1.0" xmlns="http://www.w3.org/2000/svg"
 width="700.000000pt" height="700.000000pt" viewBox="0 0 700.000000 700.000000"
 preserveAspectRatio="xMidYMid meet">
<metadata>
Created by potrace 1.14, written by Peter Selinger 2001-2017
</metadata>
<g transform="translate(0.000000,700.000000) scale(0.100000,-0.100000)"
fill="#000000" stroke="none">
<path d="M3278 6995 c-1 -1 -37 -5 -78 -9 -97 -8 -222 -23 -285 -36 -27 -5
-61 -12 -75 -14 -366 -67 -757 -213 -1095 -409 -103 -60 -289 -180 -305 -197
-3 -3 -40 -32 -83 -64 -212 -161 -444 -392 -621 -620 -74 -95 -246 -347 -246
-360 0 -4 -12 -25 -27 -49 -38 -61 -155 -297 -198 -402 -89 -217 -160 -454
-200 -670 -10 -49 -18 -97 -20 -105 -2 -9 -6 -43 -10 -75 -4 -33 -9 -69 -11
-80 -25 -135 -25 -673 0 -813 2 -9 7 -44 11 -77 4 -32 9 -68 11 -80 2 -11 7
-36 10 -55 15 -94 61 -280 101 -410 130 -422 341 -821 614 -1160 51 -63 102
-124 113 -136 121 -126 222 -227 280 -279 273 -247 627 -472 971 -617 263
-111 613 -209 870 -243 22 -2 56 -7 75 -10 198 -27 656 -27 850 1 434 63 751
159 1125 340 241 116 581 344 760 509 117 108 248 241 354 359 69 78 223 291
302 417 209 337 385 775 454 1129 20 104 36 195 40 240 4 30 8 61 11 69 25 77
25 633 -1 821 -2 19 -7 54 -10 77 -5 38 -35 207 -49 274 -59 279 -195 639
-348 918 -457 833 -1230 1443 -2146 1695 -70 20 -138 37 -152 40 -14 2 -45 9
-70 15 -63 14 -162 29 -370 57 -47 6 -546 15 -552 9z m447 -300 c55 -3 118 -8
140 -11 59 -7 166 -23 195 -29 14 -3 41 -8 60 -11 275 -47 663 -190 950 -350
110 -61 340 -218 450 -307 492 -397 886 -988 1050 -1572 12 -44 26 -91 31
-105 10 -30 57 -253 64 -307 3 -21 8 -60 11 -88 4 -27 8 -53 10 -56 6 -10 17
-242 17 -359 1 -152 -13 -332 -33 -460 -5 -30 -12 -73 -15 -95 -10 -75 -56
-270 -80 -346 -9 -25 -17 -54 -19 -65 -3 -10 -20 -62 -40 -114 -99 -270 -208
-484 -360 -710 -378 -563 -938 -998 -1575 -1226 -159 -57 -396 -120 -525 -140
-21 -3 -46 -7 -55 -9 -9 -2 -44 -6 -76 -10 -33 -4 -69 -9 -80 -11 -118 -22
-541 -22 -695 1 -14 2 -50 7 -80 10 -71 9 -249 42 -325 62 -33 8 -70 17 -83
19 -39 8 -292 94 -382 131 -513 212 -979 567 -1309 996 -139 182 -257 369
-340 542 -24 50 -47 98 -52 107 -96 188 -219 616 -254 883 -4 28 -8 61 -10 75
-22 172 -23 599 -1 716 2 10 7 42 10 69 12 95 35 221 58 315 31 132 115 395
148 465 5 11 30 67 56 125 25 58 60 130 76 160 17 30 42 75 55 100 39 71 169
266 236 354 316 415 739 752 1219 971 209 96 549 205 712 230 21 3 48 7 60 10
34 8 78 14 134 21 29 3 63 7 74 9 12 3 74 7 137 11 64 4 117 8 119 9 4 4 206
-3 317 -10z"/>
<path d="M2746 5105 c-14 -13 -26 -29 -26 -35 0 -5 95 -200 211 -432 189 -379
210 -425 202 -452 -8 -28 -49 -50 -585 -319 l-576 -288 10 -40 10 -39 732 0
733 0 21 -23 22 -23 0 -731 0 -731 40 -10 39 -10 289 576 c267 533 291 577
318 585 27 8 75 -14 452 -202 232 -116 427 -211 433 -211 7 0 22 12 35 27 l22
26 -257 516 c-142 284 -269 540 -284 569 -14 29 -24 61 -22 71 2 9 129 271
284 580 l280 563 -28 29 -28 28 -564 -281 c-310 -155 -572 -283 -581 -285 -10
-1 -274 125 -587 282 l-569 284 -26 -24z"/>
<path d="M2306 2554 l-377 -567 31 -28 31 -29 564 377 565 377 0 218 0 218
-218 0 -218 0 -378 -566z"/>
</g>
</svg>
