<svg width="331" height="65" viewBox="0 0 331 65" fill="none" xmlns="http://www.w3.org/2000/svg">
<path fill-rule="evenodd" clip-rule="evenodd" d="M48.8175 8.13693C43.9989 4.91728 38.3338 3.19879 32.5386 3.19879C24.7674 3.19879 17.3145 6.28588 11.8195 11.7809C6.32447 17.276 3.23738 24.7288 3.23738 32.5C3.23738 38.2952 4.95587 43.9603 8.17552 48.7789C11.3952 53.5974 15.9714 57.353 21.3255 59.5708C26.6796 61.7885 32.5711 62.3688 38.255 61.2382C43.9388 60.1076 49.1598 57.3169 53.2577 53.2191C57.3555 49.1212 60.1462 43.9002 61.2768 38.2164C62.4074 32.5325 61.8271 26.641 59.6094 21.2869C57.3916 15.9328 53.636 11.3566 48.8175 8.13693ZM14.7603 5.89297C20.0227 2.37677 26.2096 0.5 32.5386 0.5C41.0217 0.512238 49.154 3.88759 55.1525 9.8861C61.151 15.8846 64.5263 24.0168 64.5386 32.5C64.5386 38.829 62.6618 45.0159 59.1456 50.2782C55.6294 55.5406 50.6317 59.6421 44.7844 62.0641C38.9372 64.4861 32.5031 65.1198 26.2957 63.8851C20.0883 62.6504 14.3864 59.6027 9.91117 55.1274C5.43589 50.6521 2.38819 44.9503 1.15346 38.7429C-0.0812678 32.5355 0.552441 26.1014 2.97444 20.2541C5.39645 14.4069 9.49796 9.40917 14.7603 5.89297ZM25.8613 17.6027L25.3524 18.1116L29.2849 25.9921L29.1152 26.501L18.5822 31.7752L18.7519 32.5H32.1533L32.5389 32.8856V46.287L33.2637 46.4567L38.5379 35.9236L39.0468 35.754L46.9273 39.6865L47.4362 39.1776L42.2699 28.8143V28.475L47.4362 18.1116L46.9273 17.6027L36.5639 22.7689H36.2246L25.8613 17.6027ZM18.1809 46.3178L18.7207 46.8576L29.0686 39.9487V35.9699H25.0898L18.1809 46.3178Z" fill="url(#paint0_linear_284_2171)"/>
<path d="M86.8386 22.5553C82.3386 22.5553 80.5386 25.0153 80.5386 28.3753C80.5386 31.1953 81.7986 34.2253 87.1986 34.2253H91.9086C94.3986 34.2253 95.0886 35.4253 95.0886 36.7453C95.0886 38.2153 94.2186 39.2653 92.2986 39.2653H80.8986V42.8053H92.1786C96.7986 42.8053 98.6286 40.2853 98.6286 36.8653C98.6286 33.9553 97.3386 30.8953 91.8186 30.8953H87.0786C84.7086 30.8953 84.0786 29.7253 84.0786 28.4953C84.0786 27.0853 84.8886 26.0953 86.7186 26.0953H97.0986V22.5553H86.8386Z" fill="white"/>
<path d="M100.093 22.5553V26.0953H106.003V42.8053H109.573V26.0953H115.483V22.5553H100.093Z" fill="white"/>
<path d="M125.172 26.5153C125.382 26.0353 125.712 25.8253 126.192 25.8253C126.672 25.8253 127.002 26.0353 127.182 26.5153L133.332 42.8053H137.262L130.422 24.8053C129.702 22.9153 128.322 22.1953 126.222 22.1953C124.092 22.1953 122.712 22.9153 121.962 24.8053L114.852 42.8053H118.752L125.172 26.5153Z" fill="white"/>
<path d="M140.207 22.5553V26.0953H151.307C153.257 26.0953 154.127 27.3253 154.127 28.7653C154.127 30.2053 153.317 31.5853 151.307 31.5853H143.417C141.197 31.5853 140.237 32.5153 140.237 34.7953V42.8053H143.777V35.4853C143.777 35.1253 143.957 34.9753 144.287 34.9753H149.567L154.187 42.8053H158.117L153.407 34.7053C156.497 33.8353 157.697 31.1353 157.697 28.6153C157.697 25.3753 155.747 22.5553 151.187 22.5553H140.207Z" fill="white"/>
<path d="M167.053 22.5553C162.553 22.5553 160.753 25.0153 160.753 28.3753C160.753 31.1953 162.013 34.2253 167.413 34.2253H172.123C174.613 34.2253 175.303 35.4253 175.303 36.7453C175.303 38.2153 174.433 39.2653 172.513 39.2653H161.113V42.8053H172.393C177.013 42.8053 178.843 40.2853 178.843 36.8653C178.843 33.9553 177.553 30.8953 172.033 30.8953H167.293C164.923 30.8953 164.293 29.7253 164.293 28.4953C164.293 27.0853 165.103 26.0953 166.933 26.0953H177.313V22.5553H167.053Z" fill="white"/>
<path d="M182.777 22.5553V42.8053H186.317V34.3453H196.667V42.8053H200.237V22.5553H196.667V30.8053H186.317V22.5553H182.777Z" fill="white"/>
<path d="M205.131 22.5553V42.8053H208.671V22.5553H205.131Z" fill="white"/>
<path d="M213.508 22.5553V26.0953H224.038C225.958 26.0953 226.828 27.3253 226.828 28.7953C226.828 30.2053 226.018 31.5853 224.008 31.5853H216.718C214.498 31.5853 213.538 32.5153 213.538 34.7953V42.8053H217.078V35.4853C217.078 35.1253 217.258 34.9753 217.588 34.9753H223.888C228.628 34.9753 230.398 31.6753 230.398 28.6153C230.398 25.3753 228.448 22.5553 223.888 22.5553H213.508Z" fill="white"/>
<path d="M250.328 22.5553C244.448 22.5553 241.178 25.8853 241.178 32.6953C241.178 39.4753 244.418 42.8053 250.328 42.8053H253.448C257.978 42.8053 259.748 40.0153 259.748 36.4753C259.748 32.9653 257.978 30.7453 254.378 30.7453H249.518V33.8353H254.018C255.668 33.8353 256.508 34.7953 256.508 36.4153C256.508 38.0653 255.668 39.2653 253.688 39.2653H250.328C246.398 39.2653 244.718 37.3153 244.718 32.6953C244.718 28.0453 246.428 26.0953 250.328 26.0953H258.668V22.5553H250.328Z" fill="white"/>
<path d="M263.633 22.5553V36.3553C263.633 40.6153 265.853 42.8053 270.173 42.8053H274.433C278.753 42.8053 281.003 40.6153 281.003 36.3553V22.5553H277.523V36.0853C277.523 38.0953 276.473 39.2653 274.193 39.2653H270.593C268.253 39.2653 267.233 38.0953 267.233 36.0853V22.5553H263.633Z" fill="white"/>
<path d="M285.756 22.5553V42.8053H289.296V22.5553H285.756Z" fill="white"/>
<path d="M293.983 22.5553V35.8153C293.983 39.8653 296.083 42.8053 301.453 42.8053H309.523V39.2653H301.663C298.483 39.2653 297.523 37.7353 297.523 35.7853V22.5553H293.983Z" fill="white"/>
<path d="M314.535 22.5553C313.395 22.5553 312.855 23.0953 312.855 24.2053V41.1553C312.855 42.2653 313.395 42.8053 314.535 42.8053H321.675C327.615 42.8053 330.795 39.5053 330.795 32.6953C330.795 25.8553 327.585 22.5553 321.675 22.5553H314.535ZM316.395 26.4553C316.395 26.1853 316.515 26.0953 316.785 26.0953H321.675C325.605 26.0953 327.255 28.0453 327.255 32.6653C327.255 37.3153 325.605 39.2653 321.675 39.2653H316.785C316.515 39.2653 316.395 39.1753 316.395 38.9053V26.4553Z" fill="white"/>
<defs>
<linearGradient id="paint0_linear_284_2171" x1="13.2615" y1="49.4638" x2="54.9" y2="13.994" gradientUnits="userSpaceOnUse">
<stop stop-color="#AA6F00"/>
<stop offset="1" stop-color="#FFE250"/>
</linearGradient>
</defs>
</svg>
