<svg width="253" height="42" viewBox="0 0 253 42" fill="none" xmlns="http://www.w3.org/2000/svg">
<path d="M56.5897 14C53.2597 14 51.9297 15.82 51.9297 18.31C51.9297 20.39 52.8597 22.63 56.8497 22.63H60.3397C62.1797 22.63 62.6897 23.52 62.6897 24.5C62.6897 25.48 62.0397 26.36 60.6197 26.36H52.1897V29H60.5397C63.9497 29 65.3097 27.14 65.3097 24.61C65.3097 22.45 64.3097 20.19 60.3097 20.19H56.7597C55.0097 20.19 54.5397 19.33 54.5397 18.42C54.5397 17.51 55.1397 16.64 56.5397 16.64H64.2097V14H56.5897Z" fill="white"/>
<path d="M68.1504 14.02V16.64H72.5204V29H75.1604V16.64H79.5304V14.02H68.1504Z" fill="white"/>
<path d="M87.7902 17.0001C87.8456 16.845 87.9494 16.7118 88.0862 16.62C88.2229 16.5282 88.3856 16.4827 88.5502 16.4901C88.7114 16.4809 88.8711 16.5262 89.0035 16.6187C89.1359 16.7112 89.2333 16.8456 89.2802 17.0001L93.8302 29.0001H96.7302L91.6702 15.6901C91.4529 15.0619 91.0264 14.5273 90.4621 14.1759C89.8977 13.8246 89.2298 13.6778 88.5702 13.7601C87.905 13.6843 87.2337 13.833 86.6628 14.1828C86.092 14.5325 85.6546 15.0631 85.4202 15.6901L80.1602 29.0001H83.0002L87.7902 17.0001Z" fill="white"/>
<path d="M100 14V16.62H108.21C108.484 16.5903 108.761 16.6208 109.022 16.7095C109.283 16.7982 109.521 16.9429 109.721 17.1335C109.92 17.324 110.075 17.5558 110.175 17.8126C110.275 18.0694 110.318 18.345 110.3 18.62C110.321 18.8994 110.281 19.1801 110.184 19.4427C110.086 19.7053 109.933 19.9437 109.734 20.1413C109.535 20.339 109.296 20.4913 109.033 20.5877C108.77 20.6842 108.489 20.7225 108.21 20.7H102.4C100.75 20.7 100.04 21.39 100.04 23.08V29H102.66V23.59C102.651 23.5381 102.655 23.485 102.671 23.4349C102.687 23.3848 102.715 23.3393 102.752 23.3021C102.789 23.2649 102.835 23.2372 102.885 23.2212C102.935 23.2051 102.988 23.2013 103.04 23.21H106.94L110.36 29H113.27L109.78 23C110.742 22.7225 111.581 22.1257 112.159 21.3078C112.737 20.4899 113.02 19.4997 112.96 18.5C112.96 16.1 111.51 14.01 108.14 14.01L100 14Z" fill="white"/>
<path d="M121 14C117.67 14 116.34 15.82 116.34 18.31C116.34 20.39 117.27 22.63 121.26 22.63H124.75C126.59 22.63 127.1 23.52 127.1 24.5C127.1 25.48 126.45 26.36 125.03 26.36H116.6V29H124.95C128.36 29 129.72 27.14 129.72 24.61C129.72 22.45 128.72 20.19 124.72 20.19H121.21C119.46 20.19 118.99 19.33 118.99 18.42C118.99 17.51 119.59 16.64 120.99 16.64H128.66V14H121Z" fill="white"/>
<path d="M133.72 14.02V29H136.34V22.74H144V29H146.64V14.02H144V20.13H136.34V14.02H133.72Z" fill="white"/>
<path d="M153.99 14.02H151.37V29H153.99V14.02Z" fill="white"/>
<path d="M158.67 14V16.62H166.46C166.732 16.5932 167.007 16.626 167.265 16.7162C167.523 16.8063 167.758 16.9517 167.954 17.1421C168.15 17.3325 168.302 17.5633 168.4 17.8186C168.498 18.0738 168.539 18.3473 168.52 18.62C168.54 18.8973 168.499 19.1756 168.401 19.4357C168.303 19.6959 168.15 19.9319 167.953 20.1275C167.755 20.3231 167.518 20.4738 167.257 20.5691C166.996 20.6645 166.717 20.7023 166.44 20.68H161.05C159.4 20.68 158.69 21.37 158.69 23.06V29H161.31V23.59C161.301 23.5381 161.305 23.485 161.321 23.4349C161.337 23.3848 161.365 23.3393 161.402 23.3021C161.439 23.2649 161.485 23.2372 161.535 23.2212C161.585 23.2051 161.638 23.2013 161.69 23.21H166.35C166.985 23.2627 167.625 23.1782 168.225 22.9622C168.825 22.7462 169.372 22.4038 169.828 21.958C170.284 21.5123 170.639 20.9738 170.869 20.3789C171.099 19.784 171.198 19.1466 171.16 18.51C171.16 16.11 169.72 14.02 166.35 14.02L158.67 14Z" fill="white"/>
<path d="M188.12 14C183.77 14 181.35 16.47 181.35 21.5C181.35 26.53 183.75 28.98 188.12 28.98H190.43C193.78 28.98 195.09 26.92 195.09 24.3C195.09 21.68 193.78 20.06 191.09 20.06H187.49V22.35H190.82C191.073 22.3253 191.328 22.358 191.567 22.4457C191.805 22.5334 192.021 22.6737 192.198 22.8563C192.375 23.0389 192.508 23.2591 192.588 23.5004C192.668 23.7417 192.692 23.9979 192.66 24.25C192.693 24.5324 192.662 24.8187 192.569 25.0875C192.477 25.3564 192.325 25.6012 192.125 25.8036C191.926 26.0061 191.683 26.1613 191.416 26.2575C191.148 26.3538 190.862 26.3888 190.58 26.36H188.09C185.19 26.36 183.94 24.92 183.94 21.5C183.94 18.08 185.21 16.62 188.09 16.62H194.26V14H188.12Z" fill="white"/>
<path d="M199.07 14V24.23C199.07 27.38 200.71 29 203.91 29H207.06C210.26 29 211.92 27.38 211.92 24.23V14H209.35V24C209.35 25.49 208.57 26.35 206.88 26.35H204.22C202.49 26.35 201.73 25.49 201.73 24V14H199.07Z" fill="white"/>
<path d="M219.16 14.02H216.54V29H219.16V14.02Z" fill="white"/>
<path d="M223.74 14V23.81C223.74 26.81 225.29 28.98 229.26 28.98H235.26V26.38H229.45C227.1 26.38 226.39 25.25 226.39 23.81V14H223.74Z" fill="white"/>
<path d="M240.05 14C239.2 14 238.81 14.4 238.81 15.22V27.78C238.81 28.6 239.2 29 240.05 29H245.33C249.72 29 252.07 26.56 252.07 21.52C252.07 16.48 249.7 14 245.33 14H240.05ZM241.42 16.89C241.42 16.69 241.51 16.62 241.71 16.62H245.33C248.24 16.62 249.46 18.06 249.46 21.48C249.46 24.9 248.24 26.36 245.33 26.36H241.71C241.51 26.36 241.42 26.3 241.42 26.1V16.89Z" fill="white"/>
<path fill-rule="evenodd" clip-rule="evenodd" d="M31.5558 5.20208C28.4313 3.11433 24.7579 2 21 2C15.9609 2 11.1282 4.00178 7.56498 7.56497C4.00179 11.1282 2.00001 15.9609 2.00001 21C2.00001 24.7578 3.11433 28.4313 5.20208 31.5558C7.28983 34.6804 10.2572 37.1156 13.729 38.5537C17.2008 39.9918 21.0211 40.368 24.7067 39.6349C28.3924 38.9018 31.7778 37.0922 34.435 34.435C37.0922 31.7778 38.9018 28.3924 39.6349 24.7067C40.368 21.0211 39.9918 17.2008 38.5537 13.729C37.1157 10.2572 34.6804 7.28982 31.5558 5.20208ZM9.33303 3.53914C12.7865 1.23163 16.8466 0 21 0C26.5696 0 31.911 2.21249 35.8493 6.15076C39.7875 10.089 42 15.4305 42 21C42 25.1534 40.7684 29.2135 38.4609 32.667C36.1534 36.1204 32.8736 38.812 29.0364 40.4015C25.1991 41.9909 20.9767 42.4068 16.9031 41.5965C12.8295 40.7862 9.08767 38.7861 6.15076 35.8492C3.21386 32.9123 1.21381 29.1705 0.403518 25.0969C-0.406772 21.0233 0.00910032 16.8009 1.59854 12.9636C3.18798 9.1264 5.8796 5.84665 9.33303 3.53914ZM16.6702 11.3398L16.3402 11.6698L18.8902 16.7798L18.7802 17.1098L11.9502 20.5298L12.0602 20.9998H20.7502L21.0002 21.2498V29.9398L21.4702 30.0498L24.8902 23.2198L25.2202 23.1098L30.3302 25.6598L30.6602 25.3298L27.3102 18.6098V18.3898L30.6602 11.6698L30.3302 11.3398L23.6102 14.6898H23.3902L16.6702 11.3398ZM11.6904 29.96L12.0404 30.31L18.7504 25.83V23.25H16.1704L11.6904 29.96Z" fill="url(#paint0_linear_298_2283)"/>
<defs>
<linearGradient id="paint0_linear_298_2283" x1="8.3494" y1="32.1325" x2="35.6747" y2="8.85542" gradientUnits="userSpaceOnUse">
<stop stop-color="#AA6F00"/>
<stop offset="1" stop-color="#FFE250"/>
</linearGradient>
</defs>
</svg>
