<svg width="65" height="65" viewBox="0 0 65 65" fill="none" xmlns="http://www.w3.org/2000/svg">
<path fill-rule="evenodd" clip-rule="evenodd" d="M48.8175 8.13693C43.9989 4.91728 38.3338 3.19879 32.5386 3.19879C24.7674 3.19879 17.3145 6.28588 11.8195 11.7809C6.32447 17.276 3.23738 24.7288 3.23738 32.5C3.23738 38.2952 4.95587 43.9603 8.17552 48.7789C11.3952 53.5974 15.9714 57.353 21.3255 59.5708C26.6796 61.7885 32.5711 62.3688 38.255 61.2382C43.9388 60.1076 49.1598 57.3169 53.2577 53.2191C57.3555 49.1212 60.1462 43.9002 61.2768 38.2164C62.4074 32.5325 61.8271 26.641 59.6094 21.2869C57.3916 15.9328 53.636 11.3566 48.8175 8.13693ZM14.7603 5.89297C20.0227 2.37677 26.2096 0.5 32.5386 0.5C41.0217 0.512238 49.154 3.88759 55.1525 9.8861C61.151 15.8846 64.5263 24.0168 64.5386 32.5C64.5386 38.829 62.6618 45.0159 59.1456 50.2782C55.6294 55.5406 50.6317 59.6421 44.7844 62.0641C38.9372 64.4861 32.5031 65.1198 26.2957 63.8851C20.0883 62.6504 14.3864 59.6027 9.91117 55.1274C5.43589 50.6521 2.38819 44.9503 1.15346 38.7429C-0.0812672 32.5355 0.552442 26.1014 2.97445 20.2541C5.39645 14.4069 9.49796 9.40917 14.7603 5.89297ZM25.8613 17.6027L25.3524 18.1116L29.2849 25.9921L29.1152 26.501L18.5822 31.7752L18.7519 32.5H32.1533L32.5389 32.8856V46.287L33.2637 46.4567L38.5379 35.9236L39.0468 35.754L46.9273 39.6865L47.4362 39.1776L42.27 28.8143V28.475L47.4362 18.1116L46.9273 17.6027L36.5639 22.7689H36.2246L25.8613 17.6027ZM18.1809 46.3178L18.7207 46.8576L29.0686 39.9487V35.9699H25.0898L18.1809 46.3178Z" fill="url(#paint0_linear_284_2172)"/>
<defs>
<linearGradient id="paint0_linear_284_2172" x1="13.2615" y1="49.4638" x2="54.9" y2="13.994" gradientUnits="userSpaceOnUse">
<stop stop-color="#AA6F00"/>
<stop offset="1" stop-color="#FFE250"/>
</linearGradient>
</defs>
</svg>
